<?xml version="1.0" standalone="no"?>
<!DOCTYPE svg PUBLIC "-//W3C//DTD SVG 20010904//EN"
 "http://www.w3.org/TR/2001/REC-SVG-20010904/DTD/svg10.dtd">
<svg version="1.0" xmlns="http://www.w3.org/2000/svg"
 width="1072.000000pt" height="1072.000000pt" viewBox="0 0 1072.000000 1072.000000"
 preserveAspectRatio="xMidYMid meet">
<metadata>
Created by potrace 1.14, written by Peter Selinger 2001-2017
</metadata>
<g transform="translate(0.000000,1072.000000) scale(0.100000,-0.100000)"
fill="#000000" stroke="none">
<path d="M5005 10679 c-64 -38 -263 -153 -595 -344 -69 -40 -210 -121 -315
-182 -104 -60 -282 -163 -395 -228 -363 -209 -451 -260 -645 -372 -104 -60
-280 -162 -390 -225 -110 -63 -301 -174 -425 -245 -124 -72 -286 -165 -360
-208 -74 -43 -209 -121 -300 -173 -91 -53 -292 -169 -447 -258 -325 -187 -312
-178 -381 -246 -66 -65 -112 -140 -149 -243 l-28 -80 0 -2515 0 -2515 28 -80
c37 -103 83 -178 149 -243 69 -68 56 -59 381 -246 155 -89 356 -205 447 -258
91 -52 226 -130 300 -173 74 -43 236 -136 360 -208 124 -71 315 -182 425 -245
110 -63 286 -165 390 -225 194 -112 282 -163 645 -372 113 -65 291 -168 395
-228 184 -106 244 -141 610 -352 94 -54 215 -124 271 -156 l100 -59 289 0 288
0 246 142 c135 77 298 171 361 208 194 112 368 213 520 300 80 46 197 114 260
150 63 37 175 101 248 143 73 42 191 110 262 152 301 173 400 231 495 285 55
32 172 99 260 150 88 51 205 118 260 150 55 32 154 89 220 127 66 38 185 107
265 153 80 46 197 113 260 150 63 36 180 104 260 150 284 163 357 210 407 259
65 64 114 144 150 246 l28 80 0 2515 0 2515 -28 80 c-35 99 -84 181 -145 242
-53 52 -91 78 -277 185 -71 41 -175 101 -230 133 -55 32 -174 101 -265 153
-191 110 -301 174 -780 450 -91 53 -280 162 -420 242 -140 81 -315 182 -387
224 -73 42 -191 110 -263 151 -233 135 -383 221 -485 280 -105 61 -237 137
-520 300 -93 54 -253 146 -355 205 -102 58 -221 127 -266 153 l-81 47 -289 0
-289 0 -70 -41z m1010 -1544 c330 -190 603 -350 608 -354 4 -4 -745 -441
-1665 -972 -1601 -923 -1676 -967 -1743 -1034 -45 -45 -83 -95 -107 -140 -72
-139 -68 -48 -68 -1490 0 -1151 2 -1304 16 -1359 52 -202 228 -378 430 -430
78 -20 210 -20 293 -1 156 37 315 163 384 305 70 144 67 78 67 1271 l0 1077
1796 1036 c988 570 1801 1036 1807 1036 5 0 262 -145 569 -322 l558 -322 0
-2076 0 -2076 -1797 -1037 -1797 -1037 -40 23 c-23 13 -117 67 -211 122 -287
165 -411 237 -655 378 -129 74 -291 168 -360 207 -69 40 -246 143 -395 228
-344 198 -712 411 -930 537 -93 54 -269 155 -390 225 -121 69 -296 171 -390
225 -93 54 -182 106 -197 114 l-28 16 0 2075 0 2075 28 16 c15 8 104 60 197
114 94 54 269 156 390 225 121 70 297 171 390 225 218 126 586 339 930 537
149 85 326 188 395 228 69 39 231 133 360 207 234 135 330 191 655 378 94 54
188 109 209 121 35 20 43 21 65 9 14 -7 296 -169 626 -360z"/>
</g>
</svg>
